<?xml version="1.0" encoding="utf-8" standalone="no"?>
<!DOCTYPE svg PUBLIC "-//W3C//DTD SVG 1.1//EN"
  "http://www.w3.org/Graphics/SVG/1.1/DTD/svg11.dtd">
<svg xmlns:xlink="http://www.w3.org/1999/xlink" width="993.6pt" height="489.6pt" viewBox="0 0 993.6 489.6" xmlns="http://www.w3.org/2000/svg" version="1.1">
 <metadata>
  <rdf:RDF xmlns:dc="http://purl.org/dc/elements/1.1/" xmlns:cc="http://creativecommons.org/ns#" xmlns:rdf="http://www.w3.org/1999/02/22-rdf-syntax-ns#">
   <cc:Work>
    <dc:type rdf:resource="http://purl.org/dc/dcmitype/StillImage"/>
    <dc:date>2026-09-21T02:21:06.007745</dc:date>
    <dc:format>image/svg+xml</dc:format>
    <dc:creator>
     <cc:Agent>
      <dc:title>Matplotlib v3.11.2, https://matplotlib.org/</dc:title>
     </cc:Agent>
    </dc:creator>
   </cc:Work>
  </rdf:RDF>
 </metadata>
 <defs>
  <style type="text/css">*{stroke-linejoin: round; stroke-linecap: butt}</style>
 </defs>
 <g id="figure_1">
  <g id="patch_1">
   <path d="M 0 489.6 
L 993.6 489.6 
L 993.6 0 
L 0 0 
z
" style="fill: #ffffff"/>
  </g>
  <g id="axes_1">
   <g id="patch_2">
    <path d="M 74.52 381.888 
L 933.984 381.888 
L 933.984 29.376 
L 74.52 29.376 
z
" style="fill: #ffffff"/>
   </g>
   <g id="matplotlib.axis_1">
    <g id="xtick_1">
     <g id="line2d_1"/>
     <g id="text_1">
      <text style="font-size: 10.5px; font-family: 'DejaVu Sans'; text-anchor: middle" x="167.471436" y="399.865539" transform="rotate(-0 167.471436 399.865539)">1 GPU · FP8</text>
     </g>
    </g>
    <g id="xtick_2">
     <g id="line2d_2"/>
     <g id="text_2">
      <text style="font-size: 10.5px; font-family: 'DejaVu Sans'; text-anchor: middle" x="391.991812" y="399.866359" transform="rotate(-0 391.991812 399.866359)">1 GPU · FP8 + Sol</text>
     </g>
    </g>
    <g id="xtick_3">
     <g id="line2d_3"/>
     <g id="text_3">
      <text style="font-size: 10.5px; font-family: 'DejaVu Sans'; text-anchor: middle" x="616.512188" y="399.866359" transform="rotate(-0 616.512188 399.866359)">4 GPUs · FP8 + Sol</text>
     </g>
    </g>
    <g id="xtick_4">
     <g id="line2d_4"/>
     <g id="text_4">
      <text style="font-size: 10.5px; font-family: 'DejaVu Sans'; text-anchor: middle" x="841.032564" y="399.866359" transform="rotate(-0 841.032564 399.866359)">4 GPUs · FP8 + Sol + Turbo</text>
     </g>
    </g>
   </g>
   <g id="matplotlib.axis_2">
    <g id="ytick_1">
     <g id="line2d_5">
      <path d="M 74.52 381.888 
L 933.984 381.888 
" clip-path="url(#pd879c41535)" style="fill: none; stroke: #e7ebef; stroke-width: 0.8; stroke-linecap: square"/>
     </g>
     <g id="line2d_6">
      <defs>
       <path id="m42589babd7" d="M 0 0 
L -3.5 0 
" style="stroke: #667085; stroke-width: 0.8"/>
      </defs>
      <g>
       <use xlink:href="#m42589babd7" x="74.52" y="381.888" style="fill: #667085; stroke: #667085; stroke-width: 0.8"/>
      </g>
     </g>
     <g id="text_5">
      <text style="font-size: 10px; font-family: 'DejaVu Sans'; text-anchor: end; fill: #667085" x="67.52" y="385.686828" transform="rotate(-0 67.52 385.686828)">0</text>
     </g>
    </g>
    <g id="ytick_2">
     <g id="line2d_7">
      <path d="M 74.52 341.824083 
L 933.984 341.824083 
" clip-path="url(#pd879c41535)" style="fill: none; stroke: #e7ebef; stroke-width: 0.8; stroke-linecap: square"/>
     </g>
     <g id="line2d_8">
      <g>
       <use xlink:href="#m42589babd7" x="74.52" y="341.824083" style="fill: #667085; stroke: #667085; stroke-width: 0.8"/>
      </g>
     </g>
     <g id="text_6">
      <text style="font-size: 10px; font-family: 'DejaVu Sans'; text-anchor: end; fill: #667085" x="67.52" y="345.622911" transform="rotate(-0 67.52 345.622911)">10</text>
     </g>
    </g>
    <g id="ytick_3">
     <g id="line2d_9">
      <path d="M 74.52 301.760166 
L 933.984 301.760166 
" clip-path="url(#pd879c41535)" style="fill: none; stroke: #e7ebef; stroke-width: 0.8; stroke-linecap: square"/>
     </g>
     <g id="line2d_10">
      <g>
       <use xlink:href="#m42589babd7" x="74.52" y="301.760166" style="fill: #667085; stroke: #667085; stroke-width: 0.8"/>
      </g>
     </g>
     <g id="text_7">
      <text style="font-size: 10px; font-family: 'DejaVu Sans'; text-anchor: end; fill: #667085" x="67.52" y="305.558994" transform="rotate(-0 67.52 305.558994)">20</text>
     </g>
    </g>
    <g id="ytick_4">
     <g id="line2d_11">
      <path d="M 74.52 261.696248 
L 933.984 261.696248 
" clip-path="url(#pd879c41535)" style="fill: none; stroke: #e7ebef; stroke-width: 0.8; stroke-linecap: square"/>
     </g>
     <g id="line2d_12">
      <g>
       <use xlink:href="#m42589babd7" x="74.52" y="261.696248" style="fill: #667085; stroke: #667085; stroke-width: 0.8"/>
      </g>
     </g>
     <g id="text_8">
      <text style="font-size: 10px; font-family: 'DejaVu Sans'; text-anchor: end; fill: #667085" x="67.52" y="265.495077" transform="rotate(-0 67.52 265.495077)">30</text>
     </g>
    </g>
    <g id="ytick_5">
     <g id="line2d_13">
      <path d="M 74.52 221.632331 
L 933.984 221.632331 
" clip-path="url(#pd879c41535)" style="fill: none; stroke: #e7ebef; stroke-width: 0.8; stroke-linecap: square"/>
     </g>
     <g id="line2d_14">
      <g>
       <use xlink:href="#m42589babd7" x="74.52" y="221.632331" style="fill: #667085; stroke: #667085; stroke-width: 0.8"/>
      </g>
     </g>
     <g id="text_9">
      <text style="font-size: 10px; font-family: 'DejaVu Sans'; text-anchor: end; fill: #667085" x="67.52" y="225.431159" transform="rotate(-0 67.52 225.431159)">40</text>
     </g>
    </g>
    <g id="ytick_6">
     <g id="line2d_15">
      <path d="M 74.52 181.568414 
L 933.984 181.568414 
" clip-path="url(#pd879c41535)" style="fill: none; stroke: #e7ebef; stroke-width: 0.8; stroke-linecap: square"/>
     </g>
     <g id="line2d_16">
      <g>
       <use xlink:href="#m42589babd7" x="74.52" y="181.568414" style="fill: #667085; stroke: #667085; stroke-width: 0.8"/>
      </g>
     </g>
     <g id="text_10">
      <text style="font-size: 10px; font-family: 'DejaVu Sans'; text-anchor: end; fill: #667085" x="67.52" y="185.367242" transform="rotate(-0 67.52 185.367242)">50</text>
     </g>
    </g>
    <g id="ytick_7">
     <g id="line2d_17">
      <path d="M 74.52 141.504497 
L 933.984 141.504497 
" clip-path="url(#pd879c41535)" style="fill: none; stroke: #e7ebef; stroke-width: 0.8; stroke-linecap: square"/>
     </g>
     <g id="line2d_18">
      <g>
       <use xlink:href="#m42589babd7" x="74.52" y="141.504497" style="fill: #667085; stroke: #667085; stroke-width: 0.8"/>
      </g>
     </g>
     <g id="text_11">
      <text style="font-size: 10px; font-family: 'DejaVu Sans'; text-anchor: end; fill: #667085" x="67.52" y="145.303325" transform="rotate(-0 67.52 145.303325)">60</text>
     </g>
    </g>
    <g id="ytick_8">
     <g id="line2d_19">
      <path d="M 74.52 101.44058 
L 933.984 101.44058 
" clip-path="url(#pd879c41535)" style="fill: none; stroke: #e7ebef; stroke-width: 0.8; stroke-linecap: square"/>
     </g>
     <g id="line2d_20">
      <g>
       <use xlink:href="#m42589babd7" x="74.52" y="101.44058" style="fill: #667085; stroke: #667085; stroke-width: 0.8"/>
      </g>
     </g>
     <g id="text_12">
      <text style="font-size: 10px; font-family: 'DejaVu Sans'; text-anchor: end; fill: #667085" x="67.52" y="105.239408" transform="rotate(-0 67.52 105.239408)">70</text>
     </g>
    </g>
    <g id="ytick_9">
     <g id="line2d_21">
      <path d="M 74.52 61.376663 
L 933.984 61.376663 
" clip-path="url(#pd879c41535)" style="fill: none; stroke: #e7ebef; stroke-width: 0.8; stroke-linecap: square"/>
     </g>
     <g id="line2d_22">
      <g>
       <use xlink:href="#m42589babd7" x="74.52" y="61.376663" style="fill: #667085; stroke: #667085; stroke-width: 0.8"/>
      </g>
     </g>
     <g id="text_13">
      <text style="font-size: 10px; font-family: 'DejaVu Sans'; text-anchor: end; fill: #667085" x="67.52" y="65.175491" transform="rotate(-0 67.52 65.175491)">80</text>
     </g>
    </g>
    <g id="text_14">
     <text style="font-size: 10px; font-family: 'DejaVu Sans'; text-anchor: middle; fill: #344054" x="43.392656" y="205.632" transform="rotate(-90 43.392656 205.632)">Peak GPU memory (GiB)</text>
    </g>
   </g>
   <g id="patch_3">
    <path d="M 113.586545 381.888 
L 221.356326 381.888 
L 221.356326 126.155791 
L 113.586545 126.155791 
z
" clip-path="url(#pd879c41535)" style="fill: #8fa6b6; opacity: 0.92"/>
   </g>
   <g id="patch_4">
    <path d="M 338.106922 381.888 
L 445.876702 381.888 
L 445.876702 110.724923 
L 338.106922 110.724923 
z
" clip-path="url(#pd879c41535)" style="fill: #d28a4f; opacity: 0.92"/>
   </g>
   <g id="patch_5">
    <path d="M 564.627298 383.888 
L 672.397078 383.888 
L 672.397078 213.690689 
L 564.627298 213.690689 
z
" clip-path="url(#pd879c41535)" style="fill: #072922; opacity: 0.3"/>
    <path d="M 562.627298 381.888 
L 670.397078 381.888 
L 670.397078 211.690689 
L 562.627298 211.690689 
z
" clip-path="url(#pd879c41535)" style="fill: #168a72; opacity: 0.92; stroke: #075e4c; stroke-width: 2.5; stroke-linejoin: miter"/>
    <path d="M 562.627298 381.888 
L 670.397078 381.888 
L 670.397078 211.690689 
L 562.627298 211.690689 
z
" clip-path="url(#pd879c41535)" style="fill: #168a72; opacity: 0.92; stroke: #075e4c; stroke-width: 1.8; stroke-linejoin: miter"/>
   </g>
   <g id="patch_6">
    <path d="M 789.147674 383.888 
L 896.917455 383.888 
L 896.917455 214.344075 
L 789.147674 214.344075 
z
" clip-path="url(#pd879c41535)" style="fill: #072922; opacity: 0.3"/>
    <path d="M 787.147674 381.888 
L 894.917455 381.888 
L 894.917455 212.344075 
L 787.147674 212.344075 
z
" clip-path="url(#pd879c41535)" style="fill: #168a72; opacity: 0.92; stroke: #075e4c; stroke-width: 2.5; stroke-linejoin: miter"/>
    <path d="M 787.147674 381.888 
L 894.917455 381.888 
L 894.917455 212.344075 
L 787.147674 212.344075 
z
" clip-path="url(#pd879c41535)" style="fill: #168a72; opacity: 0.92; stroke: #075e4c; stroke-width: 1.8; stroke-linejoin: miter"/>
   </g>
   <g id="patch_7">
    <path d="M 74.52 381.888 
L 74.52 29.376 
" style="fill: none; stroke: #d0d5dd; stroke-width: 0.8; stroke-linejoin: miter; stroke-linecap: square"/>
   </g>
   <g id="patch_8">
    <path d="M 74.52 381.888 
L 933.984 381.888 
" style="fill: none; stroke: #d0d5dd; stroke-width: 0.8; stroke-linejoin: miter; stroke-linecap: square"/>
   </g>
   <g id="text_15">
    <text style="font-size: 10px; font-family: 'DejaVu Sans'; text-anchor: middle; fill: #344054" x="167.471436" y="116.974371" transform="rotate(-0 167.471436 116.974371)">63.8</text>
   </g>
   <g id="text_16">
    <text style="font-size: 10px; font-family: 'DejaVu Sans'; text-anchor: middle; fill: #344054" x="391.991812" y="101.543502" transform="rotate(-0 391.991812 101.543502)">67.7</text>
   </g>
   <g id="text_17">
    <text style="font-size: 10px; font-family: 'DejaVu Sans'; text-anchor: middle; fill: #344054" x="616.512188" y="202.509269" transform="rotate(-0 616.512188 202.509269)">42.5</text>
   </g>
   <g id="text_18">
    <text style="font-size: 10px; font-family: 'DejaVu Sans'; text-anchor: middle; fill: #344054" x="841.032564" y="203.162655" transform="rotate(-0 841.032564 203.162655)">42.3</text>
   </g>
   <g id="text_19">
    <text style="font-size: 10.5px; font-family: 'DejaVu Sans'; text-anchor: start; fill: #344054" x="87.41196" y="47.929719" transform="rotate(-0 87.41196 47.929719)">↓ lower is better</text>
   </g>
  </g>
  <g id="axes_2">
   <g id="matplotlib.axis_3">
    <g id="ytick_10">
     <g id="line2d_23">
      <defs>
       <path id="m7feeda7c25" d="M 0 0 
L 3.5 0 
" style="stroke: #c93f4b; stroke-width: 0.8"/>
      </defs>
      <g>
       <use xlink:href="#m7feeda7c25" x="933.984" y="381.888" style="fill: #c93f4b; stroke: #c93f4b; stroke-width: 0.8"/>
      </g>
     </g>
     <g id="text_20">
      <text style="font-size: 10px; font-family: 'DejaVu Sans'; text-anchor: start; fill: #c93f4b" x="940.984" y="385.686828" transform="rotate(-0 940.984 385.686828)">0.0</text>
     </g>
    </g>
    <g id="ytick_11">
     <g id="line2d_24">
      <g>
       <use xlink:href="#m7feeda7c25" x="933.984" y="307.120563" style="fill: #c93f4b; stroke: #c93f4b; stroke-width: 0.8"/>
      </g>
     </g>
     <g id="text_21">
      <text style="font-size: 10px; font-family: 'DejaVu Sans'; text-anchor: start; fill: #c93f4b" x="940.984" y="310.919391" transform="rotate(-0 940.984 310.919391)">0.1</text>
     </g>
    </g>
    <g id="ytick_12">
     <g id="line2d_25">
      <g>
       <use xlink:href="#m7feeda7c25" x="933.984" y="232.353126" style="fill: #c93f4b; stroke: #c93f4b; stroke-width: 0.8"/>
      </g>
     </g>
     <g id="text_22">
      <text style="font-size: 10px; font-family: 'DejaVu Sans'; text-anchor: start; fill: #c93f4b" x="940.984" y="236.151954" transform="rotate(-0 940.984 236.151954)">0.2</text>
     </g>
    </g>
    <g id="ytick_13">
     <g id="line2d_26">
      <g>
       <use xlink:href="#m7feeda7c25" x="933.984" y="157.585688" style="fill: #c93f4b; stroke: #c93f4b; stroke-width: 0.8"/>
      </g>
     </g>
     <g id="text_23">
      <text style="font-size: 10px; font-family: 'DejaVu Sans'; text-anchor: start; fill: #c93f4b" x="940.984" y="161.384517" transform="rotate(-0 940.984 161.384517)">0.3</text>
     </g>
    </g>
    <g id="ytick_14">
     <g id="line2d_27">
      <g>
       <use xlink:href="#m7feeda7c25" x="933.984" y="82.818251" style="fill: #c93f4b; stroke: #c93f4b; stroke-width: 0.8"/>
      </g>
     </g>
     <g id="text_24">
      <text style="font-size: 10px; font-family: 'DejaVu Sans'; text-anchor: start; fill: #c93f4b" x="940.984" y="86.617079" transform="rotate(-0 940.984 86.617079)">0.4</text>
     </g>
    </g>
    <g id="text_25">
     <text style="font-size: 10px; font-family: 'DejaVu Sans'; text-anchor: middle; fill: #c93f4b" x="973.485563" y="205.632" transform="rotate(-90 973.485563 205.632)">Generated video seconds / wall-clock second</text>
    </g>
   </g>
   <g id="patch_9">
    <path d="M 74.52 381.888 
L 74.52 29.376 
" style="fill: none; stroke: #000000; stroke-width: 0.8; stroke-linejoin: miter; stroke-linecap: square"/>
   </g>
   <g id="patch_10">
    <path d="M 933.984 381.888 
L 933.984 29.376 
" style="fill: none; stroke: #c93f4b; stroke-width: 0.8; stroke-linejoin: miter; stroke-linecap: square"/>
   </g>
   <g id="patch_11">
    <path d="M 74.52 381.888 
L 933.984 381.888 
" style="fill: none; stroke: #000000; stroke-width: 0.8; stroke-linejoin: miter; stroke-linecap: square"/>
   </g>
   <g id="text_26">
    <text style="font-size: 9.5px; font-family: 'DejaVu Sans'; text-anchor: middle; fill: #c93f4b" x="167.471436" y="357.689223" transform="rotate(-0 167.471436 357.689223)">0.013</text>
   </g>
   <g id="text_27">
    <text style="font-size: 9.5px; font-family: 'DejaVu Sans'; text-anchor: middle; fill: #c93f4b" x="391.991812" y="350.604638" transform="rotate(-0 391.991812 350.604638)">0.022</text>
   </g>
   <g id="text_28">
    <text style="font-size: 9.5px; font-family: 'DejaVu Sans'; text-anchor: middle; fill: #c93f4b" x="616.512188" y="295.698676" transform="rotate(-0 616.512188 295.698676)">0.096</text>
   </g>
   <g id="text_29">
    <text style="font-size: 9.5px; font-family: 'DejaVu Sans'; text-anchor: middle; fill: #c93f4b" x="841.032564" y="91.812773" transform="rotate(-0 841.032564 91.812773)">0.368</text>
   </g>
   <g id="text_30">
    <text style="font-size: 10.5px; font-family: 'DejaVu Sans'; text-anchor: end; fill: #c93f4b" x="921.09204" y="47.929719" transform="rotate(-0 921.09204 47.929719)">↑ higher is better</text>
   </g>
   <g id="line2d_28">
    <path d="M 167.471436 372.36445 
L 391.991812 365.279865 
L 616.512188 310.373902 
L 841.032564 106.488 
" clip-path="url(#pd879c41535)" style="fill: none; stroke: #c93f4b; stroke-width: 1.6; stroke-linecap: square"/>
   </g>
   <g id="line2d_29">
    <path d="M 167.471436 372.36445 
" clip-path="url(#pd879c41535)" style="fill: none; stroke: #c93f4b; stroke-width: 1.5; stroke-linecap: square"/>
    <defs>
     <path id="mf54b096146" d="M 0 2.5 
C 0.663008 2.5 1.29895 2.236584 1.767767 1.767767 
C 2.236584 1.29895 2.5 0.663008 2.5 0 
C 2.5 -0.663008 2.236584 -1.29895 1.767767 -1.767767 
C 1.29895 -2.236584 0.663008 -2.5 0 -2.5 
C -0.663008 -2.5 -1.29895 -2.236584 -1.767767 -1.767767 
C -2.236584 -1.29895 -2.5 -0.663008 -2.5 0 
C -2.5 0.663008 -2.236584 1.29895 -1.767767 1.767767 
C -1.29895 2.236584 -0.663008 2.5 0 2.5 
z
" style="stroke: #ffffff; stroke-width: 0.8"/>
    </defs>
    <g clip-path="url(#pd879c41535)">
     <use xlink:href="#mf54b096146" x="167.471436" y="372.36445" style="fill: #c93f4b; stroke: #ffffff; stroke-width: 0.8"/>
    </g>
   </g>
   <g id="line2d_30">
    <path d="M 391.991812 365.279865 
" clip-path="url(#pd879c41535)" style="fill: none; stroke: #c93f4b; stroke-width: 1.5; stroke-linecap: square"/>
    <g clip-path="url(#pd879c41535)">
     <use xlink:href="#mf54b096146" x="391.991812" y="365.279865" style="fill: #c93f4b; stroke: #ffffff; stroke-width: 0.8"/>
    </g>
   </g>
   <g id="line2d_31">
    <path d="M 616.512188 310.373902 
" clip-path="url(#pd879c41535)" style="fill: none; stroke: #c93f4b; stroke-width: 1.5; stroke-linecap: square"/>
    <defs>
     <path id="m9fc7f9fcb3" d="M 0 -6 
L -1.347084 -1.854102 
L -5.706339 -1.854102 
L -2.179628 0.708204 
L -3.526712 4.854102 
L -0 2.291796 
L 3.526712 4.854102 
L 2.179628 0.708204 
L 5.706339 -1.854102 
L 1.347084 -1.854102 
z
" style="stroke: #ffffff; stroke-width: 0.8; stroke-linejoin: bevel"/>
    </defs>
    <g clip-path="url(#pd879c41535)">
     <use xlink:href="#m9fc7f9fcb3" x="616.512188" y="310.373902" style="fill: #c93f4b; stroke: #ffffff; stroke-width: 0.8; stroke-linejoin: bevel"/>
    </g>
   </g>
   <g id="line2d_32">
    <path d="M 841.032564 106.488 
" clip-path="url(#pd879c41535)" style="fill: none; stroke: #c93f4b; stroke-width: 1.5; stroke-linecap: square"/>
    <g clip-path="url(#pd879c41535)">
     <use xlink:href="#m9fc7f9fcb3" x="841.032564" y="106.488" style="fill: #c93f4b; stroke: #ffffff; stroke-width: 0.8; stroke-linejoin: bevel"/>
    </g>
   </g>
  </g>
  <g id="text_31">
   <text style="font-size: 9.5px; font-family: 'DejaVu Sans'; text-anchor: middle; fill: #69747d" x="496.8" y="457.776" transform="rotate(-0 496.8 457.776)">MiniMax-H3 Base / Turbo LoRA · 1344 × 768 · 124 frames · 5 s · T2AV · 50 Base steps / 8 Turbo steps · no CPU offload</text>
  </g>
  <g id="legend_1">
   <g id="patch_12">
    <path d="M 303.256289 470.283539 
L 324.256289 470.283539 
L 324.256289 462.933539 
L 303.256289 462.933539 
z
" style="fill: #8fa6b6"/>
   </g>
   <g id="text_32">
    <text style="font-size: 10.5px; font-family: 'DejaVu Sans'; text-anchor: start" x="332.656289" y="470.283539" transform="rotate(-0 332.656289 470.283539)">1 GPU</text>
   </g>
   <g id="patch_13">
    <path d="M 380.575664 470.283539 
L 401.575664 470.283539 
L 401.575664 462.933539 
L 380.575664 462.933539 
z
" style="fill: #d28a4f"/>
   </g>
   <g id="text_33">
    <text style="font-size: 10.5px; font-family: 'DejaVu Sans'; text-anchor: start" x="409.975664" y="470.283539" transform="rotate(-0 409.975664 470.283539)">4 GPUs</text>
   </g>
   <g id="line2d_33">
    <path d="M 463.364883 466.608539 
L 473.864883 466.608539 
L 484.364883 466.608539 
" style="fill: none; stroke: #c93f4b; stroke-width: 1.6; stroke-linecap: square"/>
    <defs>
     <path id="m9e3f610b1f" d="M 0 2.5 
C 0.663008 2.5 1.29895 2.236584 1.767767 1.767767 
C 2.236584 1.29895 2.5 0.663008 2.5 0 
C 2.5 -0.663008 2.236584 -1.29895 1.767767 -1.767767 
C 1.29895 -2.236584 0.663008 -2.5 0 -2.5 
C -0.663008 -2.5 -1.29895 -2.236584 -1.767767 -1.767767 
C -2.236584 -1.29895 -2.5 -0.663008 -2.5 0 
C -2.5 0.663008 -2.236584 1.29895 -1.767767 1.767767 
C -1.29895 2.236584 -0.663008 2.5 0 2.5 
z
" style="stroke: #c93f4b"/>
    </defs>
    <g>
     <use xlink:href="#m9e3f610b1f" x="473.864883" y="466.608539" style="fill: #c93f4b; stroke: #c93f4b"/>
    </g>
   </g>
   <g id="text_34">
    <text style="font-size: 10.5px; font-family: 'DejaVu Sans'; text-anchor: start" x="492.764883" y="470.283539" transform="rotate(-0 492.764883 470.283539)">Video rate</text>
   </g>
   <g id="line2d_34">
    <path d="M 562.599727 466.608539 
L 573.099727 466.608539 
L 583.599727 466.608539 
" style="fill: none; stroke: #c93f4b; stroke-width: 1.6; stroke-linecap: square"/>
    <defs>
     <path id="m195d9145cf" d="M 0 -5 
L -1.12257 -1.545085 
L -4.755283 -1.545085 
L -1.816356 0.59017 
L -2.938926 4.045085 
L -0 1.90983 
L 2.938926 4.045085 
L 1.816356 0.59017 
L 4.755283 -1.545085 
L 1.12257 -1.545085 
z
" style="stroke: #c93f4b; stroke-linejoin: bevel"/>
    </defs>
    <g>
     <use xlink:href="#m195d9145cf" x="573.099727" y="466.608539" style="fill: #c93f4b; stroke: #c93f4b; stroke-linejoin: bevel"/>
    </g>
   </g>
   <g id="text_35">
    <text style="font-size: 10.5px; font-family: 'DejaVu Sans'; text-anchor: start" x="591.999727" y="470.283539" transform="rotate(-0 591.999727 470.283539)">Adapter video rate</text>
   </g>
  </g>
 </g>
 <defs>
  <clipPath id="pd879c41535">
   <rect x="74.52" y="29.376" width="859.464" height="352.512"/>
  </clipPath>
 </defs>
</svg>
